<svg width="506" height="192" viewBox="0 0 506 192" fill="none" xmlns="http://www.w3.org/2000/svg">
<path d="M352.094 156.146V156.646H352.594H440.394V186.532V187.032H440.894H483.124H483.624V186.532V156.646H504.998H505.498V156.146V121.292V120.792H504.998H483.624V3.50253V3.00253H483.124H458.625H458.125H441.787H441.287H427.501H427.226L427.079 3.2348L352.171 121.382L352.094 121.504V121.649V156.146ZM440.634 50.8323H441.287V120.792H397.021V120.006L440.634 50.8323Z" stroke="black"/>
<path d="M210.659 180.067L210.661 180.068C222.301 187.696 236.149 191.5 252.183 191.5C268.275 191.5 282.123 187.727 293.705 180.158L293.705 180.158C305.344 172.531 314.301 161.517 320.585 147.141C326.869 132.764 330.001 115.474 330.001 95.2865C330.061 75.2176 326.959 58.104 320.673 43.9625C314.388 29.8232 305.399 19.0474 293.7 11.66C282.06 4.21312 268.214 0.5 252.183 0.5C236.152 0.5 222.306 4.21322 210.666 11.6603C199.085 19.048 190.156 29.8239 183.872 43.9625L183.871 43.9634C177.646 58.0443 174.514 75.1566 174.454 95.2836C174.394 115.412 177.497 132.673 183.781 147.052L183.781 147.052C190.065 161.369 199.022 172.382 210.659 180.067ZM283.557 95.285V95.2865C283.616 115.453 280.701 130.326 274.879 139.979C269.057 149.575 261.495 154.305 252.183 154.305C246 154.305 240.552 152.208 235.821 147.998C231.09 143.73 227.379 137.24 224.716 128.476C222.117 119.721 220.839 108.663 220.899 95.2873V95.2866C220.958 75.5365 223.903 60.9913 229.664 51.5761L229.665 51.5749C235.427 42.0992 242.929 37.4266 252.183 37.4266C258.429 37.4266 263.877 39.4968 268.547 43.6457C273.217 47.795 276.899 54.1371 279.561 62.7238L279.562 62.7247C282.22 71.2391 283.557 82.0874 283.557 95.285Z" stroke="black"/>
<path d="M0.5 156.146V156.646H1H88.8V186.532V187.032H89.3H131.531H132.031V186.532V156.646H153.405H153.905V156.146V121.292V120.792H153.405H132.031V3.50235V3.00235H131.531H107.032H106.532H90.1929H89.6929H75.9077H75.6327L75.4854 3.23462L0.577722 121.381L0.5 121.504V121.649V156.146ZM89.0402 50.8321H89.6929V120.792H45.4268V120.006L89.0402 50.8321Z" stroke="black"/>
</svg>
