<svg width="24" height="24" viewBox="0 0 24 24" fill="none" xmlns="http://www.w3.org/2000/svg">
<path d="M6.79132 2.26605L8.21418 1.83748C8.86188 1.64207 9.55857 1.68905 10.1742 1.96965C10.7898 2.25024 11.2822 2.74528 11.5596 3.36234L12.445 5.33205C12.6836 5.86268 12.7501 6.45469 12.6351 7.02501C12.5201 7.59533 12.2295 8.11533 11.8039 8.51205L10.2568 9.95462C10.2382 9.97301 10.2226 9.99411 10.2105 10.0172C10.0485 10.3481 10.2945 11.2318 11.065 12.5672C11.9342 14.0723 12.6053 14.6672 12.9165 14.5755L14.947 13.9541C15.5031 13.7842 16.0984 13.7927 16.6495 13.9782C17.2005 14.1637 17.6797 14.5171 18.0199 14.9886L19.2782 16.7312C19.6732 17.2783 19.8562 17.9503 19.7932 18.6222C19.7301 19.2941 19.4253 19.9203 18.9353 20.3843L17.8528 21.4086C17.4763 21.7652 17.0192 22.0254 16.5203 22.1671C16.0215 22.3087 15.4959 22.3276 14.9882 22.2221C11.9736 21.5946 9.27275 19.1672 6.86247 14.9929C4.45132 10.8161 3.69961 7.25891 4.66818 4.33348C4.83031 3.84371 5.10796 3.40017 5.47765 3.04032C5.84734 2.68048 6.29736 2.41491 6.79132 2.26605ZM7.16418 3.49691C6.86779 3.58618 6.59724 3.74549 6.3754 3.96137C6.15355 4.17724 5.98693 4.44335 5.88961 4.7372C5.05475 7.25805 5.73104 10.4603 7.97675 14.3501C10.2208 18.2372 12.6533 20.4229 15.2513 20.9629C15.5559 21.0261 15.8713 21.0147 16.1706 20.9296C16.4699 20.8446 16.7441 20.6884 16.9699 20.4743L18.0516 19.4509C18.3155 19.2011 18.4798 18.8639 18.5138 18.5021C18.5479 18.1403 18.4494 17.7785 18.2368 17.4838L16.9785 15.7403C16.7953 15.4865 16.5374 15.2963 16.2407 15.1963C15.9441 15.0964 15.6236 15.0918 15.3242 15.1832L13.2885 15.8063C12.1622 16.1415 11.1028 15.2029 9.95247 13.2092C8.9779 11.5223 8.64018 10.3035 9.05675 9.45234C9.1379 9.28663 9.2459 9.14062 9.38075 9.01434L10.9279 7.57177C11.1571 7.35815 11.3137 7.07811 11.3757 6.77096C11.4376 6.46381 11.4018 6.14497 11.2733 5.8592L10.387 3.89034C10.2377 3.55799 9.97247 3.29137 9.64091 3.14026C9.30936 2.98915 8.93414 2.96389 8.58532 3.0692L7.16418 3.49691Z" fill="white"/>
</svg>
