<svg width="20" height="20" viewBox="0 0 20 20" fill="none" xmlns="http://www.w3.org/2000/svg">
<path d="M5.65813 1.88968L6.84385 1.53254C7.3836 1.3697 7.96417 1.40885 8.47717 1.64267C8.99018 1.8765 9.40056 2.28903 9.63171 2.80325L10.3696 4.44468C10.5684 4.88687 10.6238 5.38021 10.5279 5.85547C10.4321 6.33074 10.1899 6.76408 9.83528 7.09468L8.54599 8.29682C8.53056 8.31215 8.51756 8.32973 8.50742 8.34897C8.37242 8.62468 8.57742 9.36111 9.21956 10.474C9.94385 11.7283 10.5031 12.224 10.7624 12.1475L12.4546 11.6297C12.918 11.4882 13.4141 11.4952 13.8733 11.6498C14.3325 11.8044 14.7318 12.0988 15.0153 12.4918L16.0638 13.944C16.3931 14.3999 16.5455 14.9599 16.493 15.5198C16.4404 16.0797 16.1864 16.6015 15.7781 16.9883L14.876 17.8418C14.5623 18.139 14.1813 18.3558 13.7657 18.4739C13.35 18.5919 12.9119 18.6076 12.4888 18.5197C9.97671 17.9968 7.72599 15.974 5.71742 12.4954C3.70813 9.01468 3.08171 6.05039 3.88885 3.61254C4.02396 3.2044 4.25533 2.83478 4.5634 2.53491C4.87148 2.23504 5.2465 2.01373 5.65813 1.88968ZM5.96885 2.91539C5.72186 2.98979 5.4964 3.12254 5.31153 3.30244C5.12666 3.48234 4.98781 3.70409 4.90671 3.94897C4.21099 6.04968 4.77456 8.71825 6.64599 11.9597C8.51599 15.199 10.5431 17.0204 12.7081 17.4704C12.962 17.5231 13.2248 17.5136 13.4742 17.4427C13.7236 17.3718 13.9521 17.2416 14.1403 17.0633L15.0417 16.2104C15.2616 16.0022 15.3985 15.7212 15.4269 15.4197C15.4553 15.1182 15.3732 14.8167 15.196 14.5711L14.1474 13.1183C13.9948 12.9067 13.7798 12.7482 13.5326 12.6649C13.2854 12.5817 13.0183 12.5778 12.7688 12.654L11.0724 13.1733C10.1338 13.4525 9.25099 12.6704 8.29242 11.009C7.48028 9.60325 7.19885 8.58754 7.54599 7.87825C7.61361 7.74016 7.70361 7.61849 7.81599 7.51325L9.10528 6.31111C9.29631 6.13309 9.42679 5.89973 9.47842 5.64377C9.53005 5.38781 9.50022 5.12211 9.39313 4.88397L8.65456 3.24325C8.5301 2.96629 8.30909 2.74411 8.03279 2.61818C7.7565 2.49226 7.44381 2.47121 7.15313 2.55897L5.96885 2.91539Z" fill="black"/>
</svg>
