<svg width="24" height="25" viewBox="0 0 24 25" fill="none" xmlns="http://www.w3.org/2000/svg">
<path d="M21 4.1V20.9C21 21.2314 20.7314 21.5 20.4 21.5H3.6C3.26863 21.5 3 21.2314 3 20.9V4.1C3 3.76863 3.26863 3.5 3.6 3.5H20.4C20.7314 3.5 21 3.76863 21 4.1Z" stroke="black" stroke-linecap="round" stroke-linejoin="round"/>
<path d="M3 16.5L10 13.5L21 18.5" stroke="black" stroke-linecap="round" stroke-linejoin="round"/>
<path d="M16 10.5C14.8954 10.5 14 9.60457 14 8.5C14 7.39543 14.8954 6.5 16 6.5C17.1046 6.5 18 7.39543 18 8.5C18 9.60457 17.1046 10.5 16 10.5Z" stroke="black" stroke-linecap="round" stroke-linejoin="round"/>
</svg>
