<svg width="24" height="25" viewBox="0 0 24 25" fill="none" xmlns="http://www.w3.org/2000/svg">
<path d="M19.2952 10.0283L17.3936 15.7331C17.3317 15.9188 17.183 16.0626 16.9954 16.1184L5.34059 19.5834C4.87531 19.7217 4.4469 19.279 4.6004 18.8185L8.38444 7.4664C8.43958 7.30097 8.56396 7.16772 8.7252 7.10133L14.1014 4.8876C14.3254 4.79537 14.5828 4.84687 14.7541 5.01814L19.1502 9.41426C19.3109 9.57496 19.3671 9.81266 19.2952 10.0283Z" stroke="black" stroke-linecap="round" stroke-linejoin="round"/>
<path d="M4.94141 19.2059L11.2943 12.853" stroke="black" stroke-linecap="round" stroke-linejoin="round"/>
<path d="M19.4121 9.67645L22.2332 6.85537C23.0142 6.07432 23.0142 4.80799 22.2332 4.02695L20.1204 1.9142C19.3394 1.13315 18.0731 1.13315 17.292 1.9142L14.4709 4.73528" stroke="black" stroke-linecap="round" stroke-linejoin="round"/>
<path d="M13.4123 10.7353C12.8276 10.1505 11.8795 10.1505 11.2947 10.7353C10.7099 11.32 10.7099 12.2681 11.2947 12.8529C11.8795 13.4377 12.8276 13.4377 13.4123 12.8529C13.9971 12.2681 13.9971 11.32 13.4123 10.7353Z" stroke="black" stroke-linecap="round" stroke-linejoin="round"/>
</svg>
