<svg width="18" height="19" viewBox="0 0 18 19" fill="none" xmlns="http://www.w3.org/2000/svg">
<path d="M9 17C13.1421 17 16.5 13.6421 16.5 9.5C16.5 5.35786 13.1421 2 9 2C4.85786 2 1.5 5.35786 1.5 9.5C1.5 10.8661 1.86523 12.1468 2.50337 13.25L1.875 16.625L5.25 15.9966C6.35315 16.6348 7.63392 17 9 17Z" stroke="#333333" stroke-linecap="round" stroke-linejoin="round"/>
<path d="M12.75 9.875C12.9571 9.875 13.125 9.70711 13.125 9.5C13.125 9.29289 12.9571 9.125 12.75 9.125C12.5429 9.125 12.375 9.29289 12.375 9.5C12.375 9.70711 12.5429 9.875 12.75 9.875Z" fill="#333333" stroke="#333333" stroke-linecap="round" stroke-linejoin="round"/>
<path d="M9 9.875C9.20711 9.875 9.375 9.70711 9.375 9.5C9.375 9.29289 9.20711 9.125 9 9.125C8.79289 9.125 8.625 9.29289 8.625 9.5C8.625 9.70711 8.79289 9.875 9 9.875Z" fill="#333333" stroke="#333333" stroke-linecap="round" stroke-linejoin="round"/>
<path d="M5.25 9.875C5.45711 9.875 5.625 9.70711 5.625 9.5C5.625 9.29289 5.45711 9.125 5.25 9.125C5.04289 9.125 4.875 9.29289 4.875 9.5C4.875 9.70711 5.04289 9.875 5.25 9.875Z" fill="#333333" stroke="#333333" stroke-linecap="round" stroke-linejoin="round"/>
</svg>
