<svg width="120" height="122" viewBox="0 0 120 122" fill="none" xmlns="http://www.w3.org/2000/svg">
<path d="M50.101 66.3012L66.3661 57.0241M50.101 66.3012V121M50.101 66.3012L4.7998 39.1928M66.3661 57.0241L29.9805 36.3526M66.3661 57.0241V100.639M76.7275 51.4819L92.2697 42.3253M76.7275 51.4819V106.783M76.7275 51.4819L29.9805 24.494M92.2697 42.3253L56.3661 21.304M92.2697 42.3253V85.5783M102.27 36.9036L116.968 27.988M102.27 36.9036V91.7229M102.27 36.9036L56.3661 9.6747M116.968 27.988V83.5301L102.27 91.7229M116.968 27.988L70.9444 1L56.3661 9.6747M50.101 121L66.3661 112.687V100.639M50.101 121L4.7998 94.8554V39.1928M76.7275 106.783L92.2697 97.988V85.5783M76.7275 106.783L66.3661 100.639M102.27 91.7229L92.2697 85.5783M4.7998 39.1928L19.4986 30.3976L29.9805 36.3526M29.9805 24.494L45.7637 15.0964L56.3661 21.304M29.9805 24.494V36.3526M56.3661 9.6747V21.304" stroke="black"/>
</svg>
