<svg width="20" height="20" viewBox="0 0 20 20" fill="none" xmlns="http://www.w3.org/2000/svg">
<path d="M7.49984 18.3333H12.4998C16.6665 18.3333 18.3332 16.6667 18.3332 12.5V7.5C18.3332 3.33333 16.6665 1.66666 12.4998 1.66666H7.49984C3.33317 1.66666 1.6665 3.33333 1.6665 7.5V12.5C1.6665 16.6667 3.33317 18.3333 7.49984 18.3333Z" stroke="black" stroke-linecap="round" stroke-linejoin="round"/>
<path d="M5.625 15V14.375C5.625 11.9588 7.58375 10 10 10V10C12.4162 10 14.375 11.9588 14.375 14.375V15" stroke="black" stroke-linecap="round" stroke-linejoin="round"/>
<path d="M10 10C11.3807 10 12.5 8.88072 12.5 7.50001C12.5 6.11929 11.3807 5.00001 10 5.00001C8.61929 5.00001 7.5 6.11929 7.5 7.50001C7.5 8.88072 8.61929 10 10 10Z" stroke="black" stroke-linecap="round" stroke-linejoin="round"/>
</svg>
