<svg width="20" height="20" viewBox="0 0 20 20" fill="none" xmlns="http://www.w3.org/2000/svg">
<path d="M8.33333 9.16667C10.1743 9.16667 11.6667 7.67428 11.6667 5.83333C11.6667 3.99238 10.1743 2.5 8.33333 2.5C6.49238 2.5 5 3.99238 5 5.83333C5 7.67428 6.49238 9.16667 8.33333 9.16667Z" stroke="black" stroke-linecap="round" stroke-linejoin="round"/>
<path d="M2.5 15.8333V15C2.5 11.7783 5.11167 9.16666 8.33333 9.16666C9.228 9.16666 10.0756 9.36807 10.8333 9.72802" stroke="black" stroke-linecap="round" stroke-linejoin="round"/>
<path d="M12.1958 12.846L13.0616 11.0101C13.1728 10.7744 13.4939 10.7744 13.605 11.0101L14.4709 12.846L16.4072 13.1422C16.6556 13.1802 16.7546 13.4998 16.5747 13.6831L15.1739 15.1112L15.5045 17.1286C15.547 17.3877 15.2871 17.5852 15.0648 17.4629L13.3333 16.5098L11.6018 17.4629C11.3795 17.5852 11.1197 17.3877 11.1622 17.1286L11.4928 15.1112L10.0919 13.6831C9.91206 13.4998 10.0111 13.1802 10.2595 13.1422L12.1958 12.846Z" stroke="black" stroke-linecap="round" stroke-linejoin="round"/>
</svg>
