<svg width="124" height="122" viewBox="0 0 124 122" fill="none" xmlns="http://www.w3.org/2000/svg">
<path d="M89.1315 45.3426L122 61L88.4443 76.7909M89.1315 45.3426L79.3307 50.0632M89.1315 45.3426L93.5538 43.2682M35.6699 45.3426L2 61L36.7809 76.7909M35.6699 45.3426L49.3728 51.6175M35.6699 45.3426L33.4343 44.3189M18.8526 21.9432L2 29.9243L18.8526 37.6415M18.8526 21.9432L79.3307 50.0632M18.8526 21.9432L33.4343 15.0376M79.3307 50.0632L63.0757 57.8924L49.3728 51.6175M93.5538 43.2682L33.4343 15.0376M93.5538 43.2682L108.733 36.1477M33.4343 15.0376L48.255 8.01881M48.255 8.01881L63.0757 1L77.3744 8.01881M48.255 8.01881L108.733 36.1477M108.733 36.1477L122 29.9243L108.733 23.4119M36.7809 76.7909L63.0757 88.7291L88.4443 76.7909M36.7809 76.7909L2 93.0319L63.0757 121L122 93.0319L88.4443 76.7909M49.3728 51.6175L108.733 23.4119M108.733 23.4119L93.5538 15.9608M93.5538 15.9608L33.4343 44.3189M93.5538 15.9608L77.3744 8.01881M33.4343 44.3189L18.8526 37.6415M18.8526 37.6415L77.3744 8.01881" stroke="black"/>
</svg>
