<svg width="14" height="14" viewBox="0 0 14 14" fill="none" xmlns="http://www.w3.org/2000/svg">
<g clip-path="url(#clip0_2196_573)">
<path d="M3.57619 1.767C3.5789 2.11279 3.4454 2.44574 3.20456 2.69388C2.96373 2.94202 2.6349 3.08539 2.28919 3.093C1.9442 3.08047 1.61721 2.93586 1.37582 2.68907C1.13443 2.44228 0.997089 2.11218 0.992188 1.767C1.0071 1.4306 1.14943 1.11248 1.3903 0.877181C1.63117 0.641882 1.95254 0.507034 2.28919 0.5C2.62485 0.507168 2.94507 0.642355 3.18433 0.877889C3.42358 1.11342 3.56376 1.43149 3.57619 1.767ZM1.13119 5.449C1.13119 4.687 1.61619 4.806 2.28919 4.806C2.96219 4.806 3.43719 4.687 3.43719 5.449V12.873C3.43719 13.645 2.95219 13.487 2.28919 13.487C1.62619 13.487 1.13119 13.645 1.13119 12.873V5.449ZM5.43719 5.45C5.43719 5.024 5.59519 4.865 5.84219 4.816C6.08919 4.767 6.94119 4.816 7.23819 4.816C7.53519 4.816 7.65419 5.301 7.64419 5.667C7.89852 5.3265 8.23577 5.05676 8.62384 4.88347C9.01191 4.71018 9.43788 4.6391 9.86119 4.677C10.2769 4.65162 10.6934 4.71396 11.0835 4.85999C11.4735 5.00602 11.8285 5.23247 12.1254 5.52463C12.4223 5.81679 12.6544 6.16812 12.8067 6.55582C12.9589 6.94351 13.0279 7.3589 13.0092 7.775V12.843C13.0092 13.615 12.5342 13.457 11.8602 13.457C11.1872 13.457 10.7122 13.615 10.7122 12.843V8.884C10.7296 8.68027 10.703 8.47518 10.6341 8.28265C10.5653 8.09012 10.4558 7.91466 10.3131 7.76819C10.1705 7.62172 9.99794 7.50768 9.80728 7.43379C9.61663 7.35991 9.4123 7.32792 9.20819 7.34C9.00486 7.33464 8.80272 7.37257 8.61517 7.45127C8.42761 7.52996 8.25893 7.64763 8.12031 7.79647C7.98168 7.94531 7.87628 8.12191 7.81109 8.31458C7.7459 8.50725 7.72242 8.71157 7.74219 8.914V12.873C7.74219 13.645 7.25719 13.487 6.58419 13.487C5.91119 13.487 5.43619 13.645 5.43619 12.873V5.449L5.43719 5.45Z" stroke="black" stroke-linecap="round" stroke-linejoin="round"/>
</g>
<defs>
<clipPath id="clip0_2196_573">
<rect width="14" height="14" fill="white"/>
</clipPath>
</defs>
</svg>
