<svg width="20" height="20" viewBox="0 0 20 20" fill="none" xmlns="http://www.w3.org/2000/svg">
<rect x="1.53125" y="1.53125" width="16.9375" height="16.9375" rx="8.46875" stroke="black" stroke-width="1.0625"/>
<path d="M15.2112 8.559C15.1643 8.41487 15.0759 8.28784 14.9569 8.19391C14.8379 8.09999 14.6939 8.04337 14.5428 8.03119L11.7772 7.80806L10.7094 5.22572C10.6516 5.08501 10.5533 4.96465 10.427 4.87994C10.3007 4.79523 10.152 4.75 9.9999 4.75C9.8478 4.75 9.69914 4.79523 9.57281 4.87994C9.44648 4.96465 9.34819 5.08501 9.29045 5.22572L8.22357 7.80759L5.45654 8.03119C5.30522 8.04398 5.16104 8.10115 5.04206 8.19553C4.92308 8.28991 4.83461 8.4173 4.78771 8.56174C4.74081 8.70618 4.73759 8.86125 4.77843 9.00752C4.81928 9.15379 4.90238 9.28475 5.01732 9.384L7.1267 11.2042L6.48404 13.9257C6.4481 14.0736 6.4569 14.2288 6.50932 14.3716C6.56175 14.5145 6.65544 14.6385 6.77849 14.728C6.90154 14.8175 7.04842 14.8684 7.20047 14.8743C7.35251 14.8802 7.50288 14.8408 7.63248 14.761L9.99966 13.3042L12.3683 14.761C12.4979 14.8398 12.648 14.8785 12.7995 14.8722C12.9511 14.8659 13.0974 14.8148 13.2201 14.7255C13.3427 14.6362 13.4362 14.5126 13.4887 14.3703C13.5412 14.228 13.5505 14.0733 13.5153 13.9257L12.8703 11.2037L14.9797 9.38353C15.0955 9.28445 15.1794 9.1532 15.2206 9.00642C15.2618 8.85964 15.2586 8.70392 15.2112 8.559ZM14.4922 8.8154L12.2094 10.7842C12.1573 10.829 12.1186 10.8873 12.0974 10.9527C12.0762 11.0181 12.0735 11.0881 12.0894 11.1549L12.7869 14.0987C12.7887 14.1027 12.7888 14.1073 12.7874 14.1115C12.7859 14.1157 12.7828 14.1192 12.7789 14.1212C12.7704 14.1277 12.7681 14.1263 12.7611 14.1212L10.1961 12.5438C10.137 12.5075 10.069 12.4883 9.99966 12.4883C9.93032 12.4883 9.86233 12.5075 9.80326 12.5438L7.23826 14.1221C7.23123 14.1263 7.22935 14.1277 7.22045 14.1221C7.21649 14.1201 7.21346 14.1166 7.21198 14.1125C7.21049 14.1083 7.21067 14.1037 7.21248 14.0996L7.90998 11.1559C7.92587 11.089 7.92309 11.0191 7.90193 10.9537C7.88076 10.8883 7.84204 10.83 7.78998 10.7851L5.50717 8.81634C5.50154 8.81165 5.49638 8.80744 5.50107 8.7929C5.50576 8.77837 5.50951 8.78025 5.51654 8.77931L8.51279 8.53744C8.58151 8.53154 8.64728 8.50681 8.70285 8.46595C8.75843 8.4251 8.80166 8.36971 8.82779 8.30587L9.98185 5.51165C9.9856 5.50368 9.98701 5.49993 9.99826 5.49993C10.0095 5.49993 10.0109 5.50368 10.0147 5.51165L11.1715 8.30587C11.1979 8.36973 11.2414 8.42506 11.2973 8.46576C11.3531 8.50645 11.4191 8.53093 11.4879 8.5365L14.4842 8.77837C14.4912 8.77837 14.4954 8.77837 14.4997 8.79197C14.5039 8.80556 14.4997 8.81072 14.4922 8.8154Z" fill="black"/>
</svg>
