<svg width="357" height="324" viewBox="0 0 357 324" fill="none" xmlns="http://www.w3.org/2000/svg">
<path d="M34.2142 88.8888C34.2142 88.8888 32.7515 85.3114 23.7398 86.3725C14.7281 87.4336 13.7958 99.3633 9.2938 107.844C4.79175 116.326 0.00926357 120.441 0.00926357 120.441C0.00926357 120.441 -0.650122 125.61 9.15738 128.528C18.9649 131.446 38.1858 126.573 38.1858 126.573C38.1858 126.573 40.6717 103.994 36.9807 97.1047C33.2896 90.2152 34.2142 88.8888 34.2142 88.8888Z" fill="#14142B"/>
<path d="M58.4813 290.697L46.2712 291.455C46.2712 291.455 43.172 268.129 37.4725 233.871C37.4725 233.757 37.4725 233.628 37.4194 233.499C35.085 219.516 32.6672 207.73 30.4844 202.205C30.4844 202.205 25.6027 222.34 24.769 241.811C23.9353 261.282 20.0471 295.35 20.0471 295.35L8.76172 297.025C8.76172 297.025 8.97466 252.932 10.0812 240.124C11.1877 227.315 6.14762 179.869 14.8333 168.121H46.2493C46.2493 168.121 56.3365 211.047 57.2157 229.525C58.0949 248.003 58.4813 290.697 58.4813 290.697Z" fill="#14142A"/>
<path d="M17.9408 295.348L17.7589 298.986L17.3345 307.406L11.0134 308.346L10.8694 299.259L10.8164 295.765L17.9408 295.348Z" fill="#C1C1C1"/>
<path d="M56.3162 304.569L49.2449 306.539C49.2449 306.539 49.0781 302.288 48.9114 298.202C48.8053 295.572 48.6991 293.011 48.6309 291.699C48.6309 291.192 48.5854 290.881 48.5703 290.813L56.195 290.055V292.45L56.248 297.861L56.3162 304.569Z" fill="#C1C1C1"/>
<path d="M19.8828 305.539C19.8828 305.539 21.0576 300.832 22.9145 301.067C24.7714 301.302 19.8828 305.539 19.8828 305.539Z" stroke="#575757" stroke-width="0.135307" stroke-miterlimit="10"/>
<path d="M20.4141 305.539C20.4141 305.539 24.8328 302.424 25.6514 304.023C26.4699 305.622 20.4141 305.539 20.4141 305.539Z" stroke="#575757" stroke-width="0.135307" stroke-miterlimit="10"/>
<path d="M59.0273 306.015C59.0273 306.015 60.0126 301.035 61.1268 301.035C62.2409 301.035 59.0273 306.015 59.0273 306.015Z" stroke="#575757" stroke-width="0.135307" stroke-miterlimit="10"/>
<path d="M58.7969 307.563C58.7969 307.563 61.389 302.462 62.7457 303.561C64.1024 304.66 58.7969 307.563 58.7969 307.563Z" stroke="#575757" stroke-width="0.135307" stroke-miterlimit="10"/>
<path d="M25.4034 311.648C25.4034 311.648 11.9275 311.996 10.9498 311.875C9.97212 311.754 8.88829 311.701 8.8125 310.64C8.8125 310.124 9.27483 306.994 9.35062 305.903C9.42641 304.811 9.15356 304.243 10.5254 303.894C11.8972 303.546 18.5593 302.773 19.3627 303.599C20.1661 304.425 22.9098 307.57 24.941 307.934C26.9723 308.298 28.6776 308.154 28.8216 309.306C28.9656 310.458 29.0111 311.564 25.4034 311.648Z" fill="#14142A"/>
<path d="M64.2002 311.648C64.2002 311.648 50.7319 311.996 49.7466 311.875C48.7613 311.754 47.7912 311.458 47.632 310.966C47.4729 310.473 48.0792 306.994 48.1474 305.903C48.2156 304.811 47.9503 304.243 49.3222 303.894C50.694 303.546 57.3561 302.773 58.1595 303.599C58.9629 304.425 61.7066 307.57 63.7454 307.934C65.7842 308.298 67.4744 308.154 67.6184 309.306C67.7624 310.458 67.8079 311.564 64.2002 311.648Z" fill="#14142A"/>
<path opacity="0.3" d="M37.4193 233.491C35.085 219.508 32.6672 207.722 30.4844 202.197L31.932 194.254C31.932 194.254 35.6837 222.6 37.4193 233.491Z" fill="black"/>
<path opacity="0.2" d="M17.9292 295.348L17.7473 298.986C15.9737 299.054 12.4418 299.183 10.8578 299.259L10.8047 295.765L17.9292 295.348Z" fill="#606060"/>
<path opacity="0.2" d="M56.2612 297.854L48.9093 298.202C48.8032 295.572 48.6971 293.01 48.6289 291.699L56.2081 292.457L56.2612 297.854Z" fill="#606060"/>
<path d="M61.1138 290.047L59.9845 295.815L46.5238 296.861L44.7578 290.047H61.1138Z" fill="#14142B"/>
<path d="M22.4061 291.926L21.2237 297.625L7.17188 298.292L7.17945 291.926H22.4061Z" fill="#14142B"/>
<path d="M65.6147 150.516C62.5831 151.964 54.2459 153.548 54.2459 153.548C54.2459 153.548 48.7889 139.443 47.3488 131.424C46.897 128.557 45.5277 125.914 43.4464 123.892C41.3652 121.869 38.6842 120.576 35.8057 120.207C32.1222 119.729 16.5697 119.888 11.1126 121.01C5.65562 122.132 4.70822 130.143 4.22315 134.956C3.73808 139.769 0.698819 157.693 3.26059 162.999C5.82236 168.304 14.8037 166.197 14.8037 166.197V168.122H46.2271L45.4692 153.419C45.4692 153.419 48.4403 161.225 53.0484 161.544C57.6566 161.862 68.1159 154.177 68.1159 154.177L65.6147 150.516ZM10.2865 158.739C10.2865 158.739 10.6351 149.584 11.2566 146.946L12.204 151.835L13.538 158.739H10.2865Z" fill="#575757"/>
<path d="M30.2727 156.662L35.2144 150.682L42.1493 149.621L43.2104 155.783L37.905 157.723C37.905 157.723 35.3508 160.8 30.25 160.27L30.2727 156.662Z" fill="#C1C1C1"/>
<path d="M65.6094 150.516L68.1788 145.802L74.4468 143.164L76.8191 149.584L71.6273 151.607C71.6273 151.607 70.2706 154.594 68.1788 154.207L65.6094 150.516Z" fill="#C1C1C1"/>
<path d="M30.3805 114.46C30.3465 115.005 30.3465 115.552 30.3805 116.097C30.4563 117.135 30.2592 119.038 32.298 120.038C31.2445 122.312 28.7055 128.011 27.1669 129.944C24.8249 128.027 19.3224 120.288 19.3224 120.288C19.3224 120.288 23.1878 116.097 20.4138 108.199C20.4138 108.199 16.5181 105.35 17.2987 103.781C18.1931 101.954 20.7321 102.939 21.2702 103.712C20.7018 102.879 18.0567 93.7307 21.2702 90.3656C23.2712 88.2661 25.2721 88.2434 29.001 88.0918H29.3118C31.6992 88.0084 33.4728 88.0918 33.4728 88.0918C34.2833 88.9649 34.9974 89.9229 35.6025 90.9492C37.2936 93.7099 38.3306 96.821 38.6342 100.044C39.3391 107.555 37.8611 113.641 30.3805 114.46Z" fill="#C1C1C1"/>
<path d="M18.9673 99.5155C18.9673 99.5155 15.0944 94.3237 18.2928 90.9586C20.2937 88.8591 25.6749 87.4873 29.3963 87.3281C29.313 88.2073 29.3963 95.9078 18.9673 99.5155Z" fill="#14142B"/>
<path d="M35.7596 90.9964C33.3454 90.7525 31.0797 89.7171 29.3155 88.0513L29.0156 87.736C30.5301 87.6734 32.0469 87.7817 33.5372 88.0589C34.3596 88.9448 35.0841 89.9169 35.6981 90.9581L35.7596 90.9964Z" fill="#14142B"/>
<path opacity="0.2" d="M30.402 116.097C28.7548 115.596 27.2934 114.618 26.2031 113.285C27.5086 113.937 28.9256 114.335 30.3793 114.46C30.3528 115.006 30.3604 115.552 30.402 116.097Z" fill="#606060"/>
<path opacity="0.2" d="M12.213 151.837L11.2656 146.948V139.93C11.2656 139.93 12.3571 147.335 12.213 151.837Z" fill="black"/>
<path d="M319.972 122.652L311.641 119.293C311.641 119.293 300.647 139.34 297.498 140.357C293.214 141.734 284.345 145.564 279.088 146.236C278.374 147.076 277.207 149.688 277.316 150.637C284.379 152.997 299.9 149.864 303.226 147.395C310.793 141.793 319.972 122.652 319.972 122.652Z" fill="#C1C1C1"/>
<path d="M322.534 118.093C324.087 123.829 315.672 135.369 315.672 135.369L304.645 129.188C304.645 129.188 306.711 124.442 309.23 119.613C313.27 111.811 320.762 111.551 322.534 118.093Z" fill="#575757"/>
<path opacity="0.2" d="M309.016 131.655L313.358 134.09L314.122 120.762C311.594 122.702 309.813 128.547 309.016 131.655Z" fill="black"/>
<path d="M315.274 113.776C315.274 113.776 306.691 132.874 311.696 168.434H345.518C346.055 163.244 344.275 137.913 350.716 113.457C347.006 112.732 343.252 112.252 339.479 112.021C334.693 111.743 329.895 111.743 325.109 112.021C321.791 112.357 318.504 112.944 315.274 113.776Z" fill="#575757"/>
<path d="M324.034 284.512L318.035 286.834L323.202 300.182L329.201 297.86L324.034 284.512Z" fill="#C1C1C1"/>
<path d="M353.529 307.178H347.205L344.887 292.539H351.211L353.529 307.178Z" fill="#C1C1C1"/>
<path d="M346.771 306.449H353.876C353.999 306.45 354.118 306.494 354.212 306.574C354.306 306.654 354.368 306.764 354.388 306.886L355.304 312.505C355.323 312.646 355.312 312.789 355.27 312.925C355.229 313.062 355.159 313.187 355.065 313.294C354.971 313.401 354.855 313.486 354.726 313.544C354.596 313.602 354.455 313.631 354.312 313.63C351.835 313.588 350.642 313.437 347.518 313.437C345.595 313.437 341.639 313.638 338.968 313.638C336.297 313.638 336.121 311.018 337.221 310.775C342.16 309.708 344.075 308.255 345.721 306.844C346.011 306.589 346.384 306.449 346.771 306.449Z" fill="#14142A"/>
<path d="M323.026 298.99L329.745 297.024C329.865 296.991 329.993 296.999 330.108 297.048C330.222 297.097 330.317 297.183 330.375 297.293L332.895 302.332C332.953 302.46 332.983 302.599 332.982 302.74C332.982 302.88 332.95 303.019 332.89 303.146C332.83 303.274 332.743 303.386 332.635 303.476C332.527 303.566 332.401 303.632 332.265 303.668C329.821 304.34 328.183 304.751 325.126 305.641C323.018 306.254 320.868 307.254 318.785 307.917C317.341 308.379 313.947 308.396 312.192 308.396C309.597 308.396 309.017 305.658 310.134 305.532C312.948 305.221 313.326 305.364 314.88 304.583C317.422 303.472 319.726 301.881 321.666 299.897C322.032 299.48 322.501 299.167 323.026 298.99Z" fill="#14142A"/>
<path d="M280.142 146.203L273.188 143.289L270.324 150.999C273.175 151.433 276.074 151.433 278.924 150.999L280.142 146.203Z" fill="#C1C1C1"/>
<path d="M268.017 143.086L267.832 148.209L270.326 150.981L273.19 143.271L268.017 143.086Z" fill="#C1C1C1"/>
<path d="M324.49 285.645L318.473 287.968L321.138 294.87L327.155 292.547L324.49 285.645Z" fill="#E7E7E7"/>
<path d="M351.211 292.539H344.887L346.088 300.089H352.412L351.211 292.539Z" fill="#E7E7E7"/>
<path opacity="0.2" d="M310.621 158.815C310.747 160.335 310.89 161.888 311.075 163.484L336.22 155.321C340.147 154.157 343.56 151.689 345.895 148.325C345.996 146.082 346.122 143.722 346.315 141.261C346.399 140.069 346.5 138.843 346.609 137.6C346.718 136.357 346.87 134.979 347.029 133.652L310.621 158.815Z" fill="black"/>
<path d="M339.01 95.8359C337.826 100.464 336.432 108.938 339.48 112.02C339.48 112.02 337.347 116.715 328.755 116.715C320.903 116.715 325.11 112.02 325.11 112.02C330.334 110.794 330.427 106.981 329.738 103.37L339.01 95.8359Z" fill="#C1C1C1"/>
<path d="M335.23 98.9102L329.746 103.37C329.916 104.2 330.014 105.043 330.04 105.889C331.644 107.485 334.861 103.445 335.188 101.379C335.355 100.566 335.369 99.7288 335.23 98.9102Z" fill="#E7E7E7"/>
<path d="M320.318 95.7775C320.7 96.4389 321.213 97.0145 321.828 97.4682C322.442 97.922 323.143 98.2442 323.887 98.4146C325.903 98.8598 326.911 97.0037 326.357 95.1392C325.861 93.4594 324.206 91.2002 322.157 91.5866C321.718 91.677 321.307 91.8713 320.959 92.1531C320.61 92.435 320.335 92.7963 320.155 93.2067C319.974 93.6171 319.895 94.0647 319.924 94.5119C319.952 94.9592 320.087 95.3932 320.318 95.7775Z" fill="#E7E7E7"/>
<path d="M323.648 80.9713C320.507 82.4074 319.398 94.8878 323.345 96.7355C327.293 98.5832 329.594 78.2417 323.648 80.9713Z" fill="#14142B"/>
<path d="M339.966 88.8738C339.211 95.1392 339.127 98.8262 335.767 102.034C334.726 103.099 333.411 103.855 331.967 104.22C330.524 104.584 329.007 104.542 327.586 104.099C326.164 103.656 324.893 102.829 323.912 101.709C322.931 100.588 322.279 99.2188 322.027 97.7512C321.011 92.1241 322.413 82.8268 328.696 80.3324C330.015 79.7502 331.467 79.5317 332.9 79.6994C334.333 79.8671 335.695 80.4151 336.845 81.2864C337.994 82.1577 338.89 83.3207 339.439 84.6548C339.988 85.989 340.17 87.4456 339.966 88.8738Z" fill="#C1C1C1"/>
<path d="M329.643 84.2121C334.296 83.0279 337.714 82.2216 336.488 86.0934C334.867 91.2669 332.918 96.2725 335.53 96.4993C337.126 96.642 344.181 93.6521 343.282 90.6202C342.501 87.9831 345.802 87.2608 346.39 85.9254C348.565 81.0878 342.342 81.7261 343.45 78.7866C344.559 75.847 338.411 71.1102 335.052 73.4702C329.584 77.2832 320.203 77.2244 325.133 70.9507C328.669 66.4742 322.361 67.3896 322.361 67.3896C322.361 67.3896 326.174 69.6489 319.758 73.1427C312.972 76.8717 319.195 86.8912 329.643 84.2121Z" fill="#14142B"/>
<path d="M342.437 95.7775C341.519 97.1066 340.139 98.0466 338.565 98.4146C336.491 98.8598 335.693 97.0037 336.474 95.1392C337.171 93.4594 339.086 91.2002 341.068 91.5866C343.05 91.9729 343.504 94.1313 342.437 95.7775Z" fill="#C1C1C1"/>
<path d="M311.697 168.434C311.697 168.434 306.019 219.245 305.574 238.528C305.121 258.584 317.882 291.885 317.882 291.885L327.96 287.686C327.96 287.686 323.136 259.785 324.816 240.091C326.596 218.615 333.953 168.467 333.953 168.467L311.697 168.434Z" fill="#14142B"/>
<path opacity="0.2" d="M325.808 182.382C321.281 191.772 324.33 210.341 326.782 221.343C327.715 213.575 328.823 205.142 329.873 197.34C329.772 185.347 328.84 176.083 325.808 182.382Z" fill="black"/>
<path d="M328.473 286.246C328.523 286.246 329.666 289.454 329.666 289.454L318.042 294.342L316.211 290.932L328.473 286.246Z" fill="#14142B"/>
<path d="M323.699 168.434C323.699 168.434 328.041 216.759 330.914 234.858C334.072 254.687 342.618 296.452 342.618 296.452H354.2C354.2 296.452 351.096 256.292 349.785 236.656C348.358 215.357 345.519 168.434 345.519 168.434H323.699Z" fill="#14142B"/>
<path d="M354.987 295.615C355.038 295.615 355.374 298.849 355.374 298.849H342.641L341.734 295.137L354.987 295.615Z" fill="#14142B"/>
<path opacity="0.2" d="M352.097 296.438C352.071 296.438 352.046 296.429 352.026 296.412C352.005 296.395 351.992 296.371 351.988 296.345C351.921 295.757 347.337 254.999 346.161 237.362C344.885 218.23 342.315 175.791 342.289 175.363C342.288 175.349 342.29 175.335 342.294 175.322C342.299 175.309 342.306 175.297 342.316 175.286C342.325 175.276 342.337 175.268 342.35 175.262C342.362 175.257 342.376 175.254 342.39 175.254C342.418 175.254 342.444 175.264 342.465 175.283C342.485 175.302 342.497 175.327 342.499 175.355C342.499 175.783 345.095 218.188 346.371 237.353C347.547 254.99 352.131 295.707 352.19 296.337C352.192 296.351 352.192 296.365 352.188 296.379C352.185 296.392 352.178 296.405 352.17 296.416C352.161 296.427 352.15 296.436 352.138 296.443C352.125 296.45 352.111 296.453 352.097 296.454V296.438Z" fill="black"/>
<path d="M353.968 121.721L345.233 119.395C345.233 119.395 336.667 140.483 333.635 141.852C329.519 143.734 319.097 150.251 314.662 153.333C314.419 154.383 314.612 157.163 315.166 157.927C322.725 156.55 337.196 150.982 340.219 148.151C347.114 141.693 353.968 121.721 353.968 121.721Z" fill="#C1C1C1"/>
<path d="M344.646 307.555C344.22 307.589 343.795 307.473 343.445 307.228C343.337 307.13 343.256 307.006 343.21 306.867C343.165 306.729 343.156 306.581 343.185 306.438C343.19 306.349 343.219 306.263 343.269 306.189C343.32 306.115 343.389 306.056 343.47 306.018C344.176 305.657 346.149 306.908 346.376 307.051C346.401 307.067 346.42 307.09 346.431 307.117C346.441 307.144 346.443 307.174 346.435 307.202C346.428 307.232 346.413 307.259 346.392 307.281C346.372 307.303 346.346 307.319 346.317 307.328C345.77 307.463 345.209 307.539 344.646 307.555ZM343.806 306.245C343.742 306.231 343.676 306.231 343.613 306.245C343.581 306.261 343.554 306.287 343.536 306.318C343.518 306.349 343.51 306.385 343.512 306.421C343.49 306.519 343.493 306.621 343.523 306.717C343.552 306.813 343.607 306.899 343.68 306.967C344.008 307.261 344.831 307.295 345.914 307.085C345.269 306.66 344.542 306.374 343.781 306.245H343.806Z" fill="#575757"/>
<path d="M346.277 307.33C346.255 307.337 346.232 307.337 346.21 307.33C345.58 306.977 344.396 305.592 344.572 304.886C344.599 304.774 344.662 304.675 344.752 304.603C344.842 304.531 344.953 304.492 345.068 304.491C345.181 304.476 345.295 304.486 345.404 304.519C345.513 304.552 345.613 304.609 345.698 304.685C346.395 305.281 346.437 307.112 346.437 307.204C346.441 307.232 346.436 307.26 346.422 307.284C346.408 307.309 346.387 307.328 346.361 307.338C346.333 307.344 346.304 307.341 346.277 307.33ZM345.152 304.768H345.093C344.9 304.768 344.875 304.878 344.866 304.92C344.766 305.331 345.513 306.381 346.135 306.877C346.132 306.167 345.912 305.475 345.505 304.894C345.407 304.809 345.281 304.764 345.152 304.768Z" fill="#575757"/>
<path d="M319.597 301.215C319.083 301.394 318.523 301.394 318.009 301.215C317.893 301.152 317.794 301.06 317.722 300.949C317.65 300.837 317.607 300.709 317.598 300.577C317.587 300.494 317.598 300.41 317.629 300.332C317.659 300.254 317.709 300.185 317.774 300.132C318.446 299.527 321.192 300.132 321.503 300.249C321.533 300.257 321.559 300.274 321.577 300.299C321.595 300.323 321.605 300.353 321.604 300.384C321.605 300.415 321.597 300.446 321.581 300.473C321.564 300.5 321.54 300.522 321.511 300.535C320.893 300.814 320.253 301.042 319.597 301.215ZM318.228 300.216C318.132 300.235 318.042 300.278 317.967 300.342C317.941 300.362 317.92 300.389 317.908 300.42C317.896 300.451 317.893 300.485 317.9 300.518C317.906 300.606 317.933 300.692 317.98 300.766C318.027 300.841 318.092 300.903 318.169 300.946C318.614 301.182 319.647 300.997 320.982 300.434C320.083 300.207 319.152 300.133 318.228 300.216Z" fill="#575757"/>
<path d="M321.489 300.533H321.422C320.582 300.382 318.902 299.416 318.852 298.694C318.852 298.526 318.927 298.29 319.33 298.156C319.466 298.108 319.611 298.087 319.755 298.096C319.9 298.104 320.041 298.142 320.17 298.206C321.077 298.652 321.556 300.264 321.581 300.34C321.587 300.365 321.586 300.392 321.579 300.417C321.572 300.442 321.558 300.464 321.539 300.482C321.527 300.503 321.509 300.52 321.489 300.533ZM319.498 298.408H319.414C319.154 298.5 319.154 298.61 319.154 298.643C319.154 299.08 320.372 299.878 321.22 300.147C321.025 299.472 320.611 298.881 320.044 298.467C319.876 298.381 319.681 298.36 319.498 298.408Z" fill="#575757"/>
<path d="M315.378 152.836L306.618 156.867L305.602 159.387L308.835 161.562C308.835 161.562 314.882 160.907 316.604 157.018L315.378 152.836Z" fill="#C1C1C1"/>
<path d="M315.743 158.068C315.547 156.385 314.991 154.764 314.113 153.315L315.499 152.273C316.541 153.943 317.206 155.821 317.448 157.775L315.743 158.068Z" fill="#263238"/>
<path d="M317.242 154.029C317.427 154.32 317.518 154.661 317.502 155.006C317.487 155.351 317.365 155.682 317.154 155.956C316.944 156.229 316.654 156.431 316.324 156.534C315.995 156.636 315.642 156.635 315.313 156.53C314.984 156.425 314.696 156.221 314.487 155.946C314.278 155.671 314.159 155.339 314.146 154.994C314.133 154.649 314.226 154.309 314.413 154.019C314.601 153.729 314.873 153.503 315.192 153.374C315.551 153.191 315.968 153.157 316.352 153.28C316.736 153.402 317.055 153.671 317.242 154.029Z" fill="#575757"/>
<path d="M300.691 160.126L301.859 161.302L309.72 157.942L306.612 156.867L300.691 160.126Z" fill="#C1C1C1"/>
<path d="M356.246 119.303C358.555 126.752 349.527 136.94 349.527 136.94L337.055 131.85C338.533 127.545 340.238 123.32 342.161 119.194C345.991 110.938 353.911 111.786 356.246 119.303Z" fill="#575757"/>
<path d="M171.561 273.754C230.682 273.754 278.61 225.827 278.61 166.705C278.61 107.584 230.682 59.6562 171.561 59.6562C112.439 59.6562 64.5117 107.584 64.5117 166.705C64.5117 225.827 112.439 273.754 171.561 273.754Z" fill="#272727"/>
<g filter="url(#filter0_d_2221_894)">
<path d="M131.027 172.497L154.187 195.656L212.084 137.758" stroke="white" stroke-width="10.56" stroke-linecap="round" stroke-linejoin="round"/>
</g>
<path d="M238.486 273.754H227.215C224.453 273.754 222.215 275.992 222.215 278.754V290.025C222.215 292.787 224.453 295.025 227.215 295.025H238.486C241.248 295.025 243.486 292.787 243.486 290.025V278.754C243.486 275.992 241.248 273.754 238.486 273.754Z" fill="#575757"/>
<path opacity="0.3" d="M86.1906 48.4492H65.2314C60.6012 48.4492 56.8477 52.2027 56.8477 56.8329V77.7921C56.8477 82.4223 60.6012 86.1758 65.2314 86.1758H86.1906C90.8207 86.1758 94.5743 82.4223 94.5743 77.7921V56.8329C94.5743 52.2027 90.8207 48.4492 86.1906 48.4492Z" fill="#BBBBBB"/>
<path d="M225.379 35.9413C221.509 31.7307 223.649 24.9102 229.23 23.6643L258.258 17.1848C263.839 15.9389 268.676 21.2021 266.964 26.6585L258.062 55.0367C256.35 60.4932 249.374 62.0505 245.504 57.8399L225.379 35.9413Z" fill="#6D6D6D"/>
<path d="M116.291 323.504C124.715 323.504 131.543 316.676 131.543 308.252C131.543 299.829 124.715 293 116.291 293C107.868 293 101.039 299.829 101.039 308.252C101.039 316.676 107.868 323.504 116.291 323.504Z" fill="#ADADAD"/>
<defs>
<filter id="filter0_d_2221_894" x="63.6643" y="78.6723" width="215.781" height="192.625" filterUnits="userSpaceOnUse" color-interpolation-filters="sRGB">
<feFlood flood-opacity="0" result="BackgroundImageFix"/>
<feColorMatrix in="SourceAlpha" type="matrix" values="0 0 0 0 0 0 0 0 0 0 0 0 0 0 0 0 0 0 127 0" result="hardAlpha"/>
<feOffset dy="8.27757"/>
<feGaussianBlur stdDeviation="31.0409"/>
<feColorMatrix type="matrix" values="0 0 0 0 0.290196 0 0 0 0 0.227451 0 0 0 0 1 0 0 0 0.3 0"/>
<feBlend mode="normal" in2="BackgroundImageFix" result="effect1_dropShadow_2221_894"/>
<feBlend mode="normal" in="SourceGraphic" in2="effect1_dropShadow_2221_894" result="shape"/>
</filter>
</defs>
</svg>
