<svg width="122" height="120" viewBox="0 0 122 120" fill="none" xmlns="http://www.w3.org/2000/svg">
<path d="M85.2749 76.4495C105.005 76.4495 120.999 60.4553 120.999 40.7254C120.999 20.9955 105.005 5.00122 85.2749 5.00122C65.545 5.00122 49.5508 20.9955 49.5508 40.7254C49.5508 60.4553 65.545 76.4495 85.2749 76.4495Z" stroke="black"/>
<path d="M60.4478 115.07C80.1777 115.07 96.1719 99.0756 96.1719 79.3457C96.1719 59.6158 80.1777 43.6216 60.4478 43.6216C40.7179 43.6216 24.7236 59.6158 24.7236 79.3457C24.7236 99.0756 40.7179 115.07 60.4478 115.07Z" stroke="black"/>
<path d="M36.7241 76.4495C56.454 76.4495 72.4483 60.4553 72.4483 40.7254C72.4483 20.9955 56.454 5.00122 36.7241 5.00122C16.9942 5.00122 1 20.9955 1 40.7254C1 60.4553 16.9942 76.4495 36.7241 76.4495Z" stroke="black"/>
<path d="M1.13818 38.1035L27.8968 64.7242M6.24163 21.9655L36.7244 52.5862M16.8623 11.069L49.8278 45.138M52.8623 25.6897L31.6209 5.41382" stroke="black"/>
</svg>
